REM DIRINDEX 1\2,1\3,1\4
REM DIRNAME folder01,folder02,folder03,folder04
TITLE ""
FILE "DISC3Track21.mp3" MP3
  TRACK 01 AUDIO
    TITLE "0:"
    INDEX 01 00:00:00
  TRACK 02 AUDIO
    TITLE "4:cjc105_5306"
    INDEX 01 00:00:13
  TRACK 03 AUDIO
    TITLE "0:"
    INDEX 01 00:04:03
  TRACK 04 AUDIO
    TITLE "4:cjc105_5307"
    INDEX 01 00:04:54
  TRACK 05 AUDIO
    TITLE "0:"
    INDEX 01 00:08:38
  TRACK 06 AUDIO
    TITLE "4:cjc105_5308"
    INDEX 01 00:08:54
  TRACK 07 AUDIO
    TITLE "0:"
    INDEX 01 00:12:09
  TRACK 08 AUDIO
    TITLE "2:cjc105_5309"
    INDEX 01 00:12:58
  TRACK 09 AUDIO
    TITLE "3:cjc105_5310"
    INDEX 01 00:13:69
  TRACK 10 AUDIO
    TITLE "0:"
    INDEX 01 00:15:15
  TRACK 11 AUDIO
    TITLE "2:cjc105_5311"
    INDEX 01 00:15:34
  TRACK 12 AUDIO
    TITLE "3:cjc105_5312"
    INDEX 01 00:16:67
  TRACK 13 AUDIO
    TITLE "0:"
    INDEX 01 00:18:27
  TRACK 14 AUDIO
    TITLE "2:cjc105_5313"
    INDEX 01 00:18:44
  TRACK 15 AUDIO
    TITLE "3:cjc105_5314"
    INDEX 01 00:19:42
  TRACK 16 AUDIO
    TITLE "0:"
    INDEX 01 00:20:69
  TRACK 17 AUDIO
    TITLE "2:cjc105_5315"
    INDEX 01 00:21:17
  TRACK 18 AUDIO
    TITLE "3:cjc105_5316"
    INDEX 01 00:22:34
  TRACK 19 AUDIO
    TITLE "0:"
    INDEX 01 00:24:06
  TRACK 20 AUDIO
    TITLE "2:cjc105_5317"
    INDEX 01 00:24:25
  TRACK 21 AUDIO
    TITLE "3:cjc105_5318"
    INDEX 01 00:25:37
  TRACK 22 AUDIO
    TITLE "0:"
    INDEX 01 00:26:60
  TRACK 23 AUDIO
    TITLE "2:cjc105_5319"
    INDEX 01 00:27:06
  TRACK 24 AUDIO
    TITLE "3:cjc105_5320"
    INDEX 01 00:28:17
  TRACK 25 AUDIO
    TITLE "0:"
    INDEX 01 00:29:29
  TRACK 26 AUDIO
    TITLE "2:cjc105_5321"
    INDEX 01 00:29:50
  TRACK 27 AUDIO
    TITLE "3:cjc105_5322"
    INDEX 01 00:31:20
  TRACK 28 AUDIO
    TITLE "0:"
    INDEX 01 00:32:58
  TRACK 29 AUDIO
    TITLE "2:cjc105_5323"
    INDEX 01 00:32:74
  TRACK 30 AUDIO
    TITLE "3:cjc105_5324"
    INDEX 01 00:34:28
  TRACK 31 AUDIO
    TITLE "0:"
    INDEX 01 00:35:72
  TRACK 32 AUDIO
    TITLE "2:cjc105_5325"
    INDEX 01 00:36:19
  TRACK 33 AUDIO
    TITLE "3:cjc105_5326"
    INDEX 01 00:38:02
  TRACK 34 AUDIO
    TITLE "0:"
    INDEX 01 00:40:24
  TRACK 35 AUDIO
    TITLE "2:cjc105_5327"
    INDEX 01 00:40:38
  TRACK 36 AUDIO
    TITLE "3:cjc105_5328"
    INDEX 01 00:41:61
  TRACK 37 AUDIO
    TITLE "0:"
    INDEX 01 00:42:70
  TRACK 38 AUDIO
    TITLE "2:cjc105_5329"
    INDEX 01 00:43:13
  TRACK 39 AUDIO
    TITLE "3:cjc105_5330"
    INDEX 01 00:44:50
  TRACK 40 AUDIO
    TITLE "0:"
    INDEX 01 00:45:71
  TRACK 41 AUDIO
    TITLE "2:cjc105_5331"
    INDEX 01 00:46:17
  TRACK 42 AUDIO
    TITLE "3:cjc105_5332"
    INDEX 01 00:47:54
  TRACK 43 AUDIO
    TITLE "0:"
    INDEX 01 00:48:65
  TRACK 44 AUDIO
    TITLE "2:cjc105_5333"
    INDEX 01 00:49:10
  TRACK 45 AUDIO
    TITLE "3:cjc105_5334"
    INDEX 01 00:51:01
  TRACK 46 AUDIO
    TITLE "0:"
    INDEX 01 00:52:32
  TRACK 47 AUDIO
    TITLE "2:cjc105_5335"
    INDEX 01 00:52:57
  TRACK 48 AUDIO
    TITLE "3:cjc105_5336"
    INDEX 01 00:54:05
  TRACK 49 AUDIO
    TITLE "0:"
    INDEX 01 00:55:32
  TRACK 50 AUDIO
    TITLE "2:cjc105_5337"
    INDEX 01 00:55:53
  TRACK 51 AUDIO
    TITLE "3:cjc105_5338"
    INDEX 01 00:57:33
  TRACK 52 AUDIO
    TITLE "0:"
    INDEX 01 00:58:71
  TRACK 53 AUDIO
    TITLE "2:cjc105_5339"
    INDEX 01 00:59:14
  TRACK 54 AUDIO
    TITLE "3:cjc105_5340"
    INDEX 01 01:00:29
  TRACK 55 AUDIO
    TITLE "0:"
    INDEX 01 01:01:27
  TRACK 56 AUDIO
    TITLE "2:cjc105_5341"
    INDEX 01 01:01:44
  TRACK 57 AUDIO
    TITLE "3:cjc105_5342"
    INDEX 01 01:02:57
  TRACK 58 AUDIO
    TITLE "0:"
    INDEX 01 01:04:07
  TRACK 59 AUDIO
    TITLE "2:cjc105_5343"
    INDEX 01 01:04:25
  TRACK 60 AUDIO
    TITLE "3:cjc105_5344"
    INDEX 01 01:05:24
  TRACK 61 AUDIO
    TITLE "0:"
    INDEX 01 01:06:26
  TRACK 62 AUDIO
    TITLE "2:cjc105_5345"
    INDEX 01 01:06:45
  TRACK 63 AUDIO
    TITLE "3:cjc105_5346"
    INDEX 01 01:07:53
  TRACK 64 AUDIO
    TITLE "0:"
    INDEX 01 01:08:48
  TRACK 65 AUDIO
    TITLE "2:cjc105_5347"
    INDEX 01 01:08:70
  TRACK 66 AUDIO
    TITLE "3:cjc105_5348"
    INDEX 01 01:10:02
  TRACK 67 AUDIO
    TITLE "0:"
    INDEX 01 01:11:13
  TRACK 68 AUDIO
    TITLE "2:cjc105_5349"
    INDEX 01 01:11:31
  TRACK 69 AUDIO
    TITLE "3:cjc105_5350"
    INDEX 01 01:12:64
  TRACK 70 AUDIO
    TITLE "0:"
    INDEX 01 01:14:17
  TRACK 71 AUDIO
    TITLE "2:cjc105_5351"
    INDEX 01 01:14:35
  TRACK 72 AUDIO
    TITLE "3:cjc105_5352"
    INDEX 01 01:16:01
  TRACK 73 AUDIO
    TITLE "0:"
    INDEX 01 01:17:51
  TRACK 74 AUDIO
    TITLE "2:cjc105_5353"
    INDEX 01 01:17:71
  TRACK 75 AUDIO
    TITLE "3:cjc105_5354"
    INDEX 01 01:19:27
  TRACK 76 AUDIO
    TITLE "0:"
    INDEX 01 01:20:49
  TRACK 77 AUDIO
    TITLE "2:cjc105_5355"
    INDEX 01 01:20:73
  TRACK 78 AUDIO
    TITLE "3:cjc105_5356"
    INDEX 01 01:21:74
  TRACK 79 AUDIO
    TITLE "0:"
    INDEX 01 01:22:68
  TRACK 80 AUDIO
    TITLE "2:cjc105_5357"
    INDEX 01 01:23:15
  TRACK 81 AUDIO
    TITLE "3:cjc105_5358"
    INDEX 01 01:24:16
  TRACK 82 AUDIO
    TITLE "0:"
    INDEX 01 01:25:21
  TRACK 83 AUDIO
    TITLE "2:cjc105_5359"
    INDEX 01 01:25:41
  TRACK 84 AUDIO
    TITLE "3:cjc105_5360"
    INDEX 01 01:27:16
  TRACK 85 AUDIO
    TITLE "0:"
    INDEX 01 01:28:57
  TRACK 86 AUDIO
    TITLE "2:cjc105_5361"
    INDEX 01 01:29:01
  TRACK 87 AUDIO
    TITLE "3:cjc105_5362"
    INDEX 01 01:30:15
  TRACK 88 AUDIO
    TITLE "0:"
    INDEX 01 01:31:14
  TRACK 89 AUDIO
    TITLE "2:cjc105_5363"
    INDEX 01 01:31:36
  TRACK 90 AUDIO
    TITLE "3:cjc105_5364"
    INDEX 01 01:32:41
  TRACK 91 AUDIO
    TITLE "0:"
    INDEX 01 01:33:48
  TRACK 92 AUDIO
    TITLE "2:cjc105_5365"
    INDEX 01 01:33:64
  TRACK 93 AUDIO
    TITLE "3:cjc105_5366"
    INDEX 01 01:34:57
  TRACK 94 AUDIO
    TITLE "0:"
    INDEX 01 01:35:57
  TRACK 95 AUDIO
    TITLE "2:cjc105_5367"
    INDEX 01 01:36:05
  TRACK 96 AUDIO
    TITLE "3:cjc105_5368"
    INDEX 01 01:37:50
  TRACK 97 AUDIO
    TITLE "0:"
    INDEX 01 01:39:15
  TRACK 98 AUDIO
    TITLE "2:cjc105_5369"
    INDEX 01 01:39:35
  TRACK 99 AUDIO
    TITLE "3:cjc105_5370"
    INDEX 01 01:40:70
  TRACK 100 AUDIO
    TITLE "0:"
    INDEX 01 01:42:24
  TRACK 101 AUDIO
    TITLE "2:cjc105_5371"
    INDEX 01 01:42:45
  TRACK 102 AUDIO
    TITLE "3:cjc105_5372"
    INDEX 01 01:43:64
  TRACK 103 AUDIO
    TITLE "0:"
    INDEX 01 01:45:18
  TRACK 104 AUDIO
    TITLE "2:cjc105_5373"
    INDEX 01 01:45:36
  TRACK 105 AUDIO
    TITLE "3:cjc105_5374"
    INDEX 01 01:46:66
  TRACK 106 AUDIO
    TITLE "0:"
    INDEX 01 01:48:30
  TRACK 107 AUDIO
    TITLE "2:cjc105_5375"
    INDEX 01 01:48:50
  TRACK 108 AUDIO
    TITLE "3:cjc105_5376"
    INDEX 01 01:49:53
  TRACK 109 AUDIO
    TITLE "0:"
    INDEX 01 01:51:09
  TRACK 110 AUDIO
    TITLE "2:cjc105_5377"
    INDEX 01 01:51:27
  TRACK 111 AUDIO
    TITLE "3:cjc105_5378"
    INDEX 01 01:52:44
  TRACK 112 AUDIO
    TITLE "0:"
    INDEX 01 01:53:51
  TRACK 113 AUDIO
    TITLE "2:cjc105_5379"
    INDEX 01 01:53:74
  TRACK 114 AUDIO
    TITLE "3:cjc105_5380"
    INDEX 01 01:55:22
  TRACK 115 AUDIO
    TITLE "0:"
    INDEX 01 01:56:37
  TRACK 116 AUDIO
    TITLE "2:cjc105_5381"
    INDEX 01 01:56:57
  TRACK 117 AUDIO
    TITLE "3:cjc105_5382"
    INDEX 01 01:58:30
  TRACK 118 AUDIO
    TITLE "0:"
    INDEX 01 01:59:71
  TRACK 119 AUDIO
    TITLE "2:cjc105_5383"
    INDEX 01 02:00:16
  TRACK 120 AUDIO
    TITLE "3:cjc105_5384"
    INDEX 01 02:01:72
  TRACK 121 AUDIO
    TITLE "0:"
    INDEX 01 02:03:47
  TRACK 122 AUDIO
    TITLE "2:cjc105_5385"
    INDEX 01 02:03:63
  TRACK 123 AUDIO
    TITLE "3:cjc105_5386"
    INDEX 01 02:05:11
  TRACK 124 AUDIO
    TITLE "0:"
    INDEX 01 02:06:18
  TRACK 125 AUDIO
    TITLE "2:cjc105_5387"
    INDEX 01 02:06:40
  TRACK 126 AUDIO
    TITLE "3:cjc105_5388"
    INDEX 01 02:07:57
  TRACK 127 AUDIO
    TITLE "0:"
    INDEX 01 02:08:66
  TRACK 128 AUDIO
    TITLE "2:cjc105_5389"
    INDEX 01 02:09:13
  TRACK 129 AUDIO
    TITLE "3:cjc105_5390"
    INDEX 01 02:10:14
  TRACK 130 AUDIO
    TITLE "0:"
    INDEX 01 02:11:41
  TRACK 131 AUDIO
    TITLE "2:cjc105_5391"
    INDEX 01 02:11:66
  TRACK 132 AUDIO
    TITLE "3:cjc105_5392"
    INDEX 01 02:13:42
  TRACK 133 AUDIO
    TITLE "0:"
    INDEX 01 02:15:05
  TRACK 134 AUDIO
    TITLE "2:cjc105_5393"
    INDEX 01 02:15:23
  TRACK 135 AUDIO
    TITLE "3:cjc105_5394"
    INDEX 01 02:16:34
  TRACK 136 AUDIO
    TITLE "0:"
    INDEX 01 02:17:49
  TRACK 137 AUDIO
    TITLE "2:cjc105_5395"
    INDEX 01 02:17:69
  TRACK 138 AUDIO
    TITLE "3:cjc105_5396"
    INDEX 01 02:19:13
  TRACK 139 AUDIO
    TITLE "0:"
    INDEX 01 02:20:26
  TRACK 140 AUDIO
    TITLE "2:cjc105_5397"
    INDEX 01 02:20:48
  TRACK 141 AUDIO
    TITLE "3:cjc105_5398"
    INDEX 01 02:21:49
  TRACK 142 AUDIO
    TITLE "0:"
    INDEX 01 02:22:62
  TRACK 143 AUDIO
    TITLE "2:cjc105_5399"
    INDEX 01 02:23:05
  TRACK 144 AUDIO
    TITLE "3:cjc105_5400"
    INDEX 01 02:24:32
  TRACK 145 AUDIO
    TITLE "0:"
    INDEX 01 02:25:39
  TRACK 146 AUDIO
    TITLE "2:cjc105_5401"
    INDEX 01 02:25:61
  TRACK 147 AUDIO
    TITLE "3:cjc105_5402"
    INDEX 01 02:27:20
  TRACK 148 AUDIO
    TITLE "0:"
    INDEX 01 02:28:37
  TRACK 149 AUDIO
    TITLE "2:cjc105_5403"
    INDEX 01 02:28:51
  TRACK 150 AUDIO
    TITLE "3:cjc105_5404"
    INDEX 01 02:29:70
  TRACK 151 AUDIO
    TITLE "0:"
    INDEX 01 02:31:03
  TRACK 152 AUDIO
    TITLE "2:cjc105_5405"
    INDEX 01 02:31:18
  TRACK 153 AUDIO
    TITLE "3:cjc105_5406"
    INDEX 01 02:33:11
  TRACK 154 AUDIO
    TITLE "0:"
    INDEX 01 02:34:30
  TRACK 155 AUDIO
    TITLE "2:cjc105_5407"
    INDEX 01 02:34:50
  TRACK 156 AUDIO
    TITLE "3:cjc105_5408"
    INDEX 01 02:36:17
  TRACK 157 AUDIO
    TITLE "0:"
    INDEX 01 02:37:48
  TRACK 158 AUDIO
    TITLE "2:cjc105_5409"
    INDEX 01 02:37:64
  TRACK 159 AUDIO
    TITLE "3:cjc105_5410"
    INDEX 01 02:39:41
  TRACK 160 AUDIO
    TITLE "0:"
    INDEX 01 02:41:03
  TRACK 161 AUDIO
    TITLE "2:cjc105_5411"
    INDEX 01 02:41:19
  TRACK 162 AUDIO
    TITLE "3:cjc105_5412"
    INDEX 01 02:42:49
  TRACK 163 AUDIO
    TITLE "0:"
    INDEX 01 02:44:29
  TRACK 164 AUDIO
    TITLE "2:cjc105_5413"
    INDEX 01 02:44:46
  TRACK 165 AUDIO
    TITLE "3:cjc105_5414"
    INDEX 01 02:45:61
  TRACK 166 AUDIO
    TITLE "0:"
    INDEX 01 02:47:29
  TRACK 167 AUDIO
    TITLE "2:cjc105_5415"
    INDEX 01 02:47:49
  TRACK 168 AUDIO
    TITLE "3:cjc105_5416"
    INDEX 01 02:48:73
  TRACK 169 AUDIO
    TITLE "0:"
    INDEX 01 02:50:27
  TRACK 170 AUDIO
    TITLE "2:cjc105_5417"
    INDEX 01 02:50:47
  TRACK 171 AUDIO
    TITLE "3:cjc105_5418"
    INDEX 01 02:51:42
  TRACK 172 AUDIO
    TITLE "0:"
    INDEX 01 02:52:50
